<svg width="18" height="20" viewBox="0 0 18 20" fill="none" xmlns="http://www.w3.org/2000/svg">
<path d="M9.00011 6.78675e-09C9.80782 -5.28786e-05 10.5849 0.308975 11.172 0.863691C11.7591 1.41841 12.1117 2.17676 12.1574 2.98317L12.1623 3.1622H17.2705C17.4554 3.16226 17.6334 3.23249 17.7684 3.35872C17.9035 3.48494 17.9857 3.65774 17.9983 3.8422C18.0109 4.02666 17.953 4.20903 17.8363 4.35245C17.7197 4.49588 17.5529 4.58967 17.3697 4.61487L17.2705 4.62168H16.496L15.2506 17.2899C15.1882 17.9215 14.9033 18.5103 14.4469 18.9513C13.9904 19.3922 13.3921 19.6566 12.7588 19.6971L12.5875 19.7029H5.41272C4.7778 19.7029 4.16359 19.4771 3.67984 19.0659C3.19608 18.6547 2.87431 18.0849 2.77203 17.4583L2.74966 17.289L1.50326 4.62168H0.729739C0.553397 4.62167 0.383023 4.55781 0.250125 4.4419C0.117226 4.326 0.0307933 4.16589 0.00681087 3.99118L0 3.89194C7.43643e-06 3.7156 0.0638693 3.54523 0.179776 3.41233C0.295682 3.27943 0.455791 3.19299 0.630494 3.16901L0.729739 3.1622H5.83791C5.83791 2.32353 6.17107 1.51922 6.7641 0.926187C7.35713 0.333159 8.16144 6.78675e-09 9.00011 6.78675e-09ZM15.0297 4.62168H2.96955L4.20232 17.1459C4.22962 17.4254 4.35277 17.6868 4.55087 17.8858C4.74897 18.0848 5.00982 18.2091 5.28915 18.2376L5.41272 18.2435H12.5875C13.1713 18.2435 13.6665 17.83 13.7794 17.2685L13.7989 17.1459L15.0287 4.62168H15.0297ZM10.7028 7.29739C10.8792 7.2974 11.0496 7.36126 11.1824 7.47716C11.3153 7.59307 11.4018 7.75318 11.4258 7.92788L11.4326 8.02713V14.838C11.4325 15.0229 11.3623 15.2009 11.2361 15.336C11.1098 15.4711 10.937 15.5532 10.7526 15.5658C10.5681 15.5784 10.3857 15.5206 10.2423 15.4039C10.0989 15.2872 10.0051 15.1204 9.97991 14.9373L9.9731 14.838V8.02713C9.9731 7.83359 10.05 7.64798 10.1868 7.51112C10.3237 7.37427 10.5093 7.29739 10.7028 7.29739ZM7.29739 7.29739C7.47373 7.2974 7.6441 7.36126 7.777 7.47716C7.9099 7.59307 7.99633 7.75318 8.02032 7.92788L8.02713 8.02713V14.838C8.02707 15.0229 7.95683 15.2009 7.83061 15.336C7.70439 15.4711 7.53159 15.5532 7.34713 15.5658C7.16267 15.5784 6.9803 15.5206 6.83687 15.4039C6.69345 15.2872 6.59966 15.1204 6.57446 14.9373L6.56765 14.838V8.02713C6.56765 7.83359 6.64453 7.64798 6.78138 7.51112C6.91824 7.37427 7.10385 7.29739 7.29739 7.29739ZM9.00011 1.45948C8.57279 1.45949 8.16109 1.62019 7.84674 1.90966C7.5324 2.19913 7.33839 2.59622 7.30323 3.02209L7.29739 3.1622H10.7028C10.7028 2.71061 10.5234 2.27752 10.2041 1.95819C9.8848 1.63887 9.4517 1.45948 9.00011 1.45948Z" fill="#D60103"/>
</svg>
