<svg width="18" height="18" viewBox="0 0 18 18" fill="none" xmlns="http://www.w3.org/2000/svg">
<path d="M17.6626 3.64075L14.3762 0.337495C14.159 0.12142 13.8651 0.00012207 13.5588 0.00012207C13.2524 0.00012207 12.9585 0.12142 12.7413 0.337495L1.09038 11.9717L0.0266203 16.5626C-0.0100758 16.7304 -0.00881786 16.9044 0.0303022 17.0716C0.0694222 17.2389 0.145416 17.3953 0.252733 17.5295C0.360049 17.6636 0.495977 17.7721 0.650586 17.847C0.805195 17.9219 0.97458 17.9613 1.14637 17.9623C1.22641 17.9704 1.30707 17.9704 1.38711 17.9623L6.02846 16.8985L17.6626 5.27558C17.8787 5.05841 18 4.76451 18 4.45816C18 4.15181 17.8787 3.85792 17.6626 3.64075ZM5.46859 15.8908L1.11837 16.8034L2.10935 12.5371L10.8266 3.8535L14.1858 7.21274L5.46859 15.8908ZM14.936 6.40092L11.5768 3.04168L13.5252 1.10452L16.8284 4.46376L14.936 6.40092Z" fill="#606060"/>
</svg>
