<svg width="116" height="12" viewBox="0 0 116 12" fill="none" xmlns="http://www.w3.org/2000/svg">
<path d="M0.732955 11V0.818182H6.87784V1.91193H1.96591V5.35227H6.55966V6.44602H1.96591V9.90625H6.95739V11H0.732955ZM9.81605 3.36364L11.6456 6.4858L13.4751 3.36364H14.8274L12.3615 7.18182L14.8274 11H13.4751L11.6456 8.03693L9.81605 11H8.46378L10.8899 7.18182L8.46378 3.36364H9.81605ZM19.2894 11.1591C18.5735 11.1591 17.957 10.9901 17.44 10.652C16.9229 10.3139 16.5252 9.84825 16.2468 9.25497C15.9684 8.66169 15.8292 7.9839 15.8292 7.22159C15.8292 6.44602 15.9717 5.7616 16.2567 5.16832C16.5451 4.57173 16.9461 4.10606 17.4599 3.77131C17.9769 3.43324 18.5801 3.2642 19.2695 3.2642C19.8065 3.2642 20.2904 3.36364 20.7212 3.5625C21.1521 3.76136 21.5051 4.03977 21.7802 4.39773C22.0553 4.75568 22.226 5.1733 22.2923 5.65057H21.119C21.0295 5.30256 20.8306 4.99432 20.5224 4.72585C20.2174 4.45407 19.8065 4.31818 19.2894 4.31818C18.832 4.31818 18.431 4.4375 18.0863 4.67614C17.7449 4.91146 17.4781 5.24455 17.2859 5.67543C17.0969 6.10298 17.0025 6.60511 17.0025 7.18182C17.0025 7.77178 17.0953 8.28551 17.2809 8.72301C17.4698 9.16051 17.735 9.50024 18.0763 9.74219C18.421 9.98414 18.8254 10.1051 19.2894 10.1051C19.5943 10.1051 19.8711 10.0521 20.1197 9.94602C20.3683 9.83996 20.5787 9.6875 20.7511 9.48864C20.9234 9.28977 21.046 9.05114 21.119 8.77273H22.2923C22.226 9.22348 22.0619 9.6295 21.8001 9.99077C21.5415 10.3487 21.1985 10.6338 20.771 10.8459C20.3467 11.0547 19.8529 11.1591 19.2894 11.1591ZM27.2092 11.1591C26.4734 11.1591 25.8387 10.9967 25.305 10.6719C24.7747 10.3438 24.3654 9.88636 24.0771 9.29972C23.792 8.70975 23.6495 8.02367 23.6495 7.24148C23.6495 6.45928 23.792 5.76989 24.0771 5.1733C24.3654 4.57339 24.7665 4.10606 25.2802 3.77131C25.7972 3.43324 26.4004 3.2642 27.0898 3.2642C27.4876 3.2642 27.8803 3.33049 28.2681 3.46307C28.6559 3.59564 29.0089 3.81108 29.3271 4.10938C29.6452 4.40436 29.8988 4.79545 30.0877 5.28267C30.2766 5.76989 30.3711 6.36979 30.3711 7.08239V7.57955H24.4847V6.56534H29.1779C29.1779 6.13447 29.0917 5.75 28.9194 5.41193C28.7504 5.07386 28.5084 4.80705 28.1935 4.61151C27.882 4.41596 27.5141 4.31818 27.0898 4.31818C26.6225 4.31818 26.2182 4.43419 25.8768 4.66619C25.5387 4.89489 25.2785 5.19318 25.0962 5.56108C24.9139 5.92898 24.8228 6.32339 24.8228 6.74432V7.42045C24.8228 7.99716 24.9222 8.48603 25.1211 8.88707C25.3233 9.2848 25.6033 9.58807 25.9613 9.79688C26.3192 10.0024 26.7352 10.1051 27.2092 10.1051C27.5174 10.1051 27.7958 10.062 28.0444 9.97585C28.2963 9.88636 28.5134 9.75379 28.6957 9.57812C28.878 9.39915 29.0188 9.17708 29.1183 8.91193L30.2518 9.23011C30.1325 9.61458 29.9319 9.95265 29.6502 10.2443C29.3685 10.5327 29.0205 10.758 28.6062 10.9205C28.1919 11.0795 27.7262 11.1591 27.2092 11.1591ZM35.3576 11.1591C34.6218 11.1591 33.9871 10.9967 33.4535 10.6719C32.9232 10.3438 32.5138 9.88636 32.2255 9.29972C31.9405 8.70975 31.7979 8.02367 31.7979 7.24148C31.7979 6.45928 31.9405 5.76989 32.2255 5.1733C32.5138 4.57339 32.9149 4.10606 33.4286 3.77131C33.9457 3.43324 34.5489 3.2642 35.2383 3.2642C35.636 3.2642 36.0288 3.33049 36.4165 3.46307C36.8043 3.59564 37.1573 3.81108 37.4755 4.10938C37.7937 4.40436 38.0472 4.79545 38.2362 5.28267C38.4251 5.76989 38.5195 6.36979 38.5195 7.08239V7.57955H32.6332V6.56534H37.3263C37.3263 6.13447 37.2402 5.75 37.0678 5.41193C36.8988 5.07386 36.6568 4.80705 36.342 4.61151C36.0304 4.41596 35.6625 4.31818 35.2383 4.31818C34.771 4.31818 34.3666 4.43419 34.0252 4.66619C33.6871 4.89489 33.427 5.19318 33.2447 5.56108C33.0624 5.92898 32.9712 6.32339 32.9712 6.74432V7.42045C32.9712 7.99716 33.0707 8.48603 33.2695 8.88707C33.4717 9.2848 33.7518 9.58807 34.1097 9.79688C34.4677 10.0024 34.8836 10.1051 35.3576 10.1051C35.6658 10.1051 35.9442 10.062 36.1928 9.97585C36.4447 9.88636 36.6618 9.75379 36.8441 9.57812C37.0264 9.39915 37.1673 9.17708 37.2667 8.91193L38.4002 9.23011C38.2809 9.61458 38.0804 9.95265 37.7987 10.2443C37.5169 10.5327 37.1689 10.758 36.7546 10.9205C36.3403 11.0795 35.8746 11.1591 35.3576 11.1591ZM43.1879 11.1591C42.5515 11.1591 41.9897 10.9983 41.5025 10.6768C41.0153 10.352 40.6341 9.89465 40.359 9.30469C40.0839 8.71141 39.9464 8.01042 39.9464 7.2017C39.9464 6.39962 40.0839 5.7036 40.359 5.11364C40.6341 4.52367 41.0169 4.06794 41.5075 3.74645C41.998 3.42495 42.5647 3.2642 43.2077 3.2642C43.7049 3.2642 44.0977 3.34706 44.386 3.51278C44.6777 3.67519 44.8997 3.8608 45.0522 4.0696C45.208 4.27509 45.329 4.44413 45.4151 4.5767H45.5146V0.818182H46.6879V11H45.5543V9.8267H45.4151C45.329 9.96591 45.2063 10.1416 45.0472 10.3537C44.8881 10.5625 44.6611 10.7498 44.3661 10.9155C44.0711 11.0779 43.6784 11.1591 43.1879 11.1591ZM43.3469 10.1051C43.8176 10.1051 44.2153 9.98248 44.5401 9.73722C44.8649 9.48864 45.1119 9.1456 45.2809 8.7081C45.4499 8.26728 45.5344 7.75852 45.5344 7.18182C45.5344 6.61174 45.4516 6.11293 45.2859 5.68537C45.1201 5.2545 44.8749 4.91974 44.5501 4.68111C44.2253 4.43916 43.8242 4.31818 43.3469 4.31818C42.8498 4.31818 42.4355 4.44579 42.104 4.70099C41.7759 4.95289 41.529 5.29593 41.3633 5.73011C41.2009 6.16098 41.1197 6.64489 41.1197 7.18182C41.1197 7.72538 41.2025 8.21922 41.3683 8.66335C41.5373 9.10417 41.7859 9.45549 42.114 9.71733C42.4454 9.97585 42.8564 10.1051 43.3469 10.1051ZM52.5394 1.91193V0.818182H60.1758V1.91193H56.9741V11H55.7411V1.91193H52.5394ZM63.9144 11.1591C63.225 11.1591 62.6201 10.995 62.0998 10.6669C61.5827 10.3388 61.1784 9.87973 60.8867 9.28977C60.5984 8.69981 60.4542 8.01042 60.4542 7.22159C60.4542 6.42614 60.5984 5.73177 60.8867 5.13849C61.1784 4.54522 61.5827 4.08452 62.0998 3.75639C62.6201 3.42827 63.225 3.2642 63.9144 3.2642C64.6038 3.2642 65.207 3.42827 65.7241 3.75639C66.2444 4.08452 66.6488 4.54522 66.9371 5.13849C67.2288 5.73177 67.3746 6.42614 67.3746 7.22159C67.3746 8.01042 67.2288 8.69981 66.9371 9.28977C66.6488 9.87973 66.2444 10.3388 65.7241 10.6669C65.207 10.995 64.6038 11.1591 63.9144 11.1591ZM63.9144 10.1051C64.4381 10.1051 64.869 9.97088 65.207 9.70241C65.5451 9.43395 65.7953 9.08097 65.9577 8.64347C66.1201 8.20597 66.2013 7.73201 66.2013 7.22159C66.2013 6.71117 66.1201 6.23556 65.9577 5.79474C65.7953 5.35393 65.5451 4.99763 65.207 4.72585C64.869 4.45407 64.4381 4.31818 63.9144 4.31818C63.3907 4.31818 62.9599 4.45407 62.6218 4.72585C62.2837 4.99763 62.0335 5.35393 61.8711 5.79474C61.7087 6.23556 61.6275 6.71117 61.6275 7.22159C61.6275 7.73201 61.7087 8.20597 61.8711 8.64347C62.0335 9.08097 62.2837 9.43395 62.6218 9.70241C62.9599 9.97088 63.3907 10.1051 63.9144 10.1051ZM73.5407 6.08807V7.18182H69.0861V6.08807H73.5407ZM78.9062 11H75.7642V0.818182H79.0455C80.0331 0.818182 80.8783 1.02202 81.581 1.42969C82.2836 1.83404 82.8222 2.41572 83.1967 3.17472C83.5713 3.9304 83.7585 4.83523 83.7585 5.8892C83.7585 6.94981 83.5696 7.86293 83.1918 8.62855C82.8139 9.39086 82.2637 9.97751 81.5412 10.3885C80.8187 10.7962 79.9403 11 78.9062 11ZM76.9972 9.90625H78.8267C79.6686 9.90625 80.3662 9.74384 80.9197 9.41903C81.4732 9.09422 81.8859 8.63187 82.1577 8.03196C82.4295 7.43205 82.5653 6.7178 82.5653 5.8892C82.5653 5.06723 82.4311 4.35961 82.1626 3.76633C81.8942 3.16974 81.4931 2.71236 80.9595 2.39418C80.4259 2.07268 79.7614 1.91193 78.9659 1.91193H76.9972V9.90625ZM88.7699 11.1591C88.0805 11.1591 87.4756 10.995 86.9553 10.6669C86.4382 10.3388 86.0339 9.87973 85.7422 9.28977C85.4538 8.69981 85.3097 8.01042 85.3097 7.22159C85.3097 6.42614 85.4538 5.73177 85.7422 5.13849C86.0339 4.54522 86.4382 4.08452 86.9553 3.75639C87.4756 3.42827 88.0805 3.2642 88.7699 3.2642C89.4593 3.2642 90.0625 3.42827 90.5795 3.75639C91.0999 4.08452 91.5043 4.54522 91.7926 5.13849C92.0843 5.73177 92.2301 6.42614 92.2301 7.22159C92.2301 8.01042 92.0843 8.69981 91.7926 9.28977C91.5043 9.87973 91.0999 10.3388 90.5795 10.6669C90.0625 10.995 89.4593 11.1591 88.7699 11.1591ZM88.7699 10.1051C89.2936 10.1051 89.7244 9.97088 90.0625 9.70241C90.4006 9.43395 90.6508 9.08097 90.8132 8.64347C90.9756 8.20597 91.0568 7.73201 91.0568 7.22159C91.0568 6.71117 90.9756 6.23556 90.8132 5.79474C90.6508 5.35393 90.4006 4.99763 90.0625 4.72585C89.7244 4.45407 89.2936 4.31818 88.7699 4.31818C88.2462 4.31818 87.8153 4.45407 87.4773 4.72585C87.1392 4.99763 86.889 5.35393 86.7266 5.79474C86.5642 6.23556 86.483 6.71117 86.483 7.22159C86.483 7.73201 86.5642 8.20597 86.7266 8.64347C86.889 9.08097 87.1392 9.43395 87.4773 9.70241C87.8153 9.97088 88.2462 10.1051 88.7699 10.1051ZM99.1319 0.818182V11H97.9586V0.818182H99.1319ZM101.281 11V3.36364H102.454V11H101.281ZM101.877 2.09091C101.649 2.09091 101.452 2.01302 101.286 1.85724C101.123 1.70147 101.042 1.5142 101.042 1.29545C101.042 1.0767 101.123 0.889441 101.286 0.733664C101.452 0.577888 101.649 0.5 101.877 0.5C102.106 0.5 102.302 0.577888 102.464 0.733664C102.63 0.889441 102.713 1.0767 102.713 1.29545C102.713 1.5142 102.63 1.70147 102.464 1.85724C102.302 2.01302 102.106 2.09091 101.877 2.09091ZM110.012 5.07386L108.958 5.37216C108.892 5.1965 108.794 5.0258 108.665 4.86009C108.539 4.69105 108.367 4.55185 108.148 4.44247C107.929 4.3331 107.649 4.27841 107.308 4.27841C106.84 4.27841 106.451 4.38613 106.139 4.60156C105.831 4.81368 105.677 5.08381 105.677 5.41193C105.677 5.7036 105.783 5.93395 105.995 6.10298C106.207 6.27202 106.539 6.41288 106.99 6.52557L108.123 6.80398C108.806 6.9697 109.315 7.22325 109.649 7.56463C109.984 7.9027 110.151 8.33854 110.151 8.87216C110.151 9.30966 110.026 9.70076 109.774 10.0455C109.525 10.3902 109.177 10.6619 108.73 10.8608C108.282 11.0597 107.762 11.1591 107.169 11.1591C106.39 11.1591 105.745 10.9901 105.235 10.652C104.724 10.3139 104.401 9.82008 104.265 9.17045L105.379 8.89205C105.485 9.30303 105.685 9.61127 105.98 9.81676C106.279 10.0223 106.668 10.125 107.149 10.125C107.695 10.125 108.13 10.009 108.451 9.77699C108.776 9.54167 108.938 9.25994 108.938 8.93182C108.938 8.66667 108.846 8.4446 108.66 8.26562C108.474 8.08333 108.189 7.94744 107.805 7.85795L106.532 7.55966C105.833 7.39394 105.319 7.13707 104.991 6.78906C104.666 6.43774 104.504 5.99858 104.504 5.47159C104.504 5.04072 104.625 4.65956 104.867 4.32812C105.112 3.99669 105.445 3.73651 105.866 3.54758C106.29 3.35866 106.771 3.2642 107.308 3.2642C108.063 3.2642 108.657 3.42992 109.088 3.76136C109.522 4.0928 109.83 4.5303 110.012 5.07386ZM115.239 3.36364V4.35795H111.281V3.36364H115.239ZM112.435 1.53409H113.608V8.8125C113.608 9.14394 113.656 9.39252 113.752 9.55824C113.852 9.72064 113.978 9.83002 114.13 9.88636C114.286 9.93939 114.45 9.96591 114.622 9.96591C114.751 9.96591 114.857 9.95928 114.94 9.94602C115.023 9.92945 115.089 9.91619 115.139 9.90625L115.378 10.9602C115.298 10.9901 115.187 11.0199 115.045 11.0497C114.902 11.0829 114.722 11.0994 114.503 11.0994C114.171 11.0994 113.847 11.0282 113.528 10.8857C113.214 10.7431 112.952 10.526 112.743 10.2344C112.537 9.94271 112.435 9.57481 112.435 9.13068V1.53409Z" fill="#606060"/>
</svg>
