<svg width="200" height="20" viewBox="0 0 200 20" fill="none" xmlns="http://www.w3.org/2000/svg">
<path d="M0.917614 19V1.54545H11.8608V3.8125H3.55114V9.13068H11.2898V11.3892H3.55114V16.733H11.9631V19H0.917614ZM17.1854 5.90909L20.0746 11.0057L22.9893 5.90909H25.7763L21.6939 12.4545L25.8104 19H23.0234L20.0746 14.108L17.1342 19H14.3388L18.4126 12.4545L14.3899 5.90909H17.1854ZM33.3913 19.2642C32.1243 19.2642 31.0334 18.9773 30.1186 18.4034C29.2095 17.8239 28.5107 17.0256 28.022 16.0085C27.5334 14.9915 27.2891 13.8267 27.2891 12.5142C27.2891 11.1847 27.5391 10.0114 28.0391 8.99432C28.5391 7.97159 29.2436 7.1733 30.1527 6.59943C31.0618 6.02557 32.1328 5.73864 33.3658 5.73864C34.3601 5.73864 35.2464 5.9233 36.0249 6.29261C36.8033 6.65625 37.4311 7.16761 37.9084 7.8267C38.3913 8.4858 38.6783 9.25568 38.7692 10.1364H36.2891C36.1527 9.52273 35.8402 8.99432 35.3516 8.55114C34.8686 8.10795 34.2209 7.88636 33.4084 7.88636C32.6982 7.88636 32.076 8.07386 31.5419 8.44886C31.0135 8.81818 30.6016 9.34659 30.3061 10.0341C30.0107 10.7159 29.8629 11.5227 29.8629 12.4545C29.8629 13.4091 30.0078 14.233 30.2976 14.9261C30.5874 15.6193 30.9964 16.1562 31.5249 16.5369C32.0589 16.9176 32.6868 17.108 33.4084 17.108C33.8913 17.108 34.3288 17.0199 34.7209 16.8438C35.1186 16.6619 35.451 16.4034 35.718 16.0682C35.9908 15.733 36.1811 15.3295 36.2891 14.858H38.7692C38.6783 15.7045 38.4027 16.4602 37.9425 17.125C37.4822 17.7898 36.8658 18.3125 36.093 18.6932C35.326 19.0739 34.4254 19.2642 33.3913 19.2642ZM47.1364 19.2642C45.8466 19.2642 44.7358 18.9886 43.804 18.4375C42.8778 17.8807 42.1619 17.0994 41.6562 16.0938C41.1562 15.0824 40.9062 13.8977 40.9062 12.5398C40.9062 11.1989 41.1562 10.017 41.6562 8.99432C42.1619 7.97159 42.8665 7.1733 43.7699 6.59943C44.679 6.02557 45.7415 5.73864 46.9574 5.73864C47.696 5.73864 48.4119 5.8608 49.1051 6.10511C49.7983 6.34943 50.4205 6.73295 50.9716 7.25568C51.5227 7.77841 51.9574 8.45739 52.2756 9.29261C52.5938 10.1222 52.7528 11.1307 52.7528 12.3182V13.2216H42.3466V11.3125H50.2557C50.2557 10.642 50.1193 10.0483 49.8466 9.53125C49.5739 9.00852 49.1903 8.59659 48.696 8.29545C48.2074 7.99432 47.6335 7.84375 46.9744 7.84375C46.2585 7.84375 45.6335 8.01989 45.0994 8.37216C44.571 8.71875 44.1619 9.1733 43.8722 9.7358C43.5881 10.2926 43.446 10.8977 43.446 11.5511V13.0426C43.446 13.9176 43.5994 14.6619 43.9062 15.2756C44.2188 15.8892 44.6534 16.358 45.2102 16.6818C45.767 17 46.4176 17.1591 47.1619 17.1591C47.6449 17.1591 48.0852 17.0909 48.483 16.9545C48.8807 16.8125 49.2244 16.6023 49.5142 16.3239C49.804 16.0455 50.0256 15.7017 50.179 15.2926L52.5909 15.7273C52.3977 16.4375 52.0511 17.0597 51.5511 17.5938C51.0568 18.1222 50.4347 18.5341 49.6847 18.8295C48.9403 19.1193 48.0909 19.2642 47.1364 19.2642ZM61.2223 19.2642C59.9325 19.2642 58.8217 18.9886 57.8899 18.4375C56.9638 17.8807 56.2479 17.0994 55.7422 16.0938C55.2422 15.0824 54.9922 13.8977 54.9922 12.5398C54.9922 11.1989 55.2422 10.017 55.7422 8.99432C56.2479 7.97159 56.9524 7.1733 57.8558 6.59943C58.7649 6.02557 59.8274 5.73864 61.0433 5.73864C61.782 5.73864 62.4979 5.8608 63.1911 6.10511C63.8842 6.34943 64.5064 6.73295 65.0575 7.25568C65.6087 7.77841 66.0433 8.45739 66.3615 9.29261C66.6797 10.1222 66.8388 11.1307 66.8388 12.3182V13.2216H56.4325V11.3125H64.3416C64.3416 10.642 64.2053 10.0483 63.9325 9.53125C63.6598 9.00852 63.2763 8.59659 62.782 8.29545C62.2933 7.99432 61.7195 7.84375 61.0604 7.84375C60.3445 7.84375 59.7195 8.01989 59.1854 8.37216C58.657 8.71875 58.2479 9.1733 57.9581 9.7358C57.674 10.2926 57.532 10.8977 57.532 11.5511V13.0426C57.532 13.9176 57.6854 14.6619 57.9922 15.2756C58.3047 15.8892 58.7393 16.358 59.2962 16.6818C59.853 17 60.5036 17.1591 61.2479 17.1591C61.7308 17.1591 62.1712 17.0909 62.5689 16.9545C62.9666 16.8125 63.3104 16.6023 63.6001 16.3239C63.8899 16.0455 64.1115 15.7017 64.2649 15.2926L66.6768 15.7273C66.4837 16.4375 66.1371 17.0597 65.6371 17.5938C65.1428 18.1222 64.5206 18.5341 63.7706 18.8295C63.0263 19.1193 62.1768 19.2642 61.2223 19.2642ZM74.5668 19.2557C73.5099 19.2557 72.5668 18.9858 71.7372 18.446C70.9134 17.9006 70.2656 17.125 69.794 16.1193C69.3281 15.108 69.0952 13.8949 69.0952 12.4801C69.0952 11.0653 69.331 9.85511 69.8026 8.84943C70.2798 7.84375 70.9332 7.07386 71.7628 6.53977C72.5923 6.00568 73.5327 5.73864 74.5838 5.73864C75.3963 5.73864 76.0497 5.875 76.544 6.14773C77.044 6.41477 77.4304 6.72727 77.7031 7.08523C77.9815 7.44318 78.1974 7.75852 78.3509 8.03125H78.5043V1.54545H81.0526V19H78.5639V16.9631H78.3509C78.1974 17.2415 77.9759 17.5597 77.6861 17.9176C77.402 18.2756 77.0099 18.5881 76.5099 18.8551C76.0099 19.1222 75.3622 19.2557 74.5668 19.2557ZM75.1293 17.0824C75.8622 17.0824 76.4815 16.8892 76.9872 16.5028C77.4986 16.1108 77.8849 15.5682 78.1463 14.875C78.4134 14.1818 78.5469 13.375 78.5469 12.4545C78.5469 11.5455 78.4162 10.75 78.1548 10.0682C77.8935 9.38636 77.5099 8.85511 77.0043 8.47443C76.4986 8.09375 75.8736 7.90341 75.1293 7.90341C74.3622 7.90341 73.723 8.10227 73.2116 8.5C72.7003 8.89773 72.3139 9.44034 72.0526 10.1278C71.7969 10.8153 71.669 11.5909 71.669 12.4545C71.669 13.3295 71.7997 14.1165 72.0611 14.8153C72.3224 15.5142 72.7088 16.0682 73.2202 16.4773C73.7372 16.8807 74.3736 17.0824 75.1293 17.0824ZM90.3849 3.8125V1.54545H103.893V3.8125H98.4474V19H95.8224V3.8125H90.3849ZM110.29 19.2642C109.063 19.2642 107.991 18.983 107.077 18.4205C106.162 17.858 105.452 17.071 104.946 16.0597C104.44 15.0483 104.188 13.8665 104.188 12.5142C104.188 11.1562 104.44 9.96875 104.946 8.9517C105.452 7.93466 106.162 7.14489 107.077 6.58239C107.991 6.01989 109.063 5.73864 110.29 5.73864C111.517 5.73864 112.588 6.01989 113.503 6.58239C114.418 7.14489 115.128 7.93466 115.634 8.9517C116.139 9.96875 116.392 11.1562 116.392 12.5142C116.392 13.8665 116.139 15.0483 115.634 16.0597C115.128 17.071 114.418 17.858 113.503 18.4205C112.588 18.983 111.517 19.2642 110.29 19.2642ZM110.298 17.125C111.094 17.125 111.753 16.9148 112.276 16.4943C112.798 16.0739 113.185 15.5142 113.435 14.8153C113.69 14.1165 113.818 13.3466 113.818 12.5057C113.818 11.6705 113.69 10.9034 113.435 10.2045C113.185 9.5 112.798 8.93466 112.276 8.50852C111.753 8.08239 111.094 7.86932 110.298 7.86932C109.497 7.86932 108.832 8.08239 108.304 8.50852C107.781 8.93466 107.392 9.5 107.136 10.2045C106.886 10.9034 106.761 11.6705 106.761 12.5057C106.761 13.3466 106.886 14.1165 107.136 14.8153C107.392 15.5142 107.781 16.0739 108.304 16.4943C108.832 16.9148 109.497 17.125 110.298 17.125ZM126.95 10.5199V12.7273H119.211V10.5199H126.95ZM136.201 19H130.55V1.54545H136.38C138.09 1.54545 139.559 1.89489 140.786 2.59375C142.013 3.28693 142.954 4.28409 143.607 5.58523C144.266 6.88068 144.596 8.43466 144.596 10.2472C144.596 12.0653 144.263 13.6278 143.599 14.9347C142.94 16.2415 141.985 17.2472 140.735 17.9517C139.485 18.6506 137.974 19 136.201 19ZM133.184 16.6989H136.056C137.386 16.6989 138.491 16.4489 139.371 15.9489C140.252 15.4432 140.911 14.7131 141.349 13.7585C141.786 12.7983 142.005 11.6278 142.005 10.2472C142.005 8.87784 141.786 7.71591 141.349 6.76136C140.917 5.80682 140.272 5.08239 139.414 4.58807C138.556 4.09375 137.491 3.84659 136.218 3.84659H133.184V16.6989ZM153.18 19.2642C151.953 19.2642 150.882 18.983 149.967 18.4205C149.053 17.858 148.342 17.071 147.837 16.0597C147.331 15.0483 147.078 13.8665 147.078 12.5142C147.078 11.1562 147.331 9.96875 147.837 8.9517C148.342 7.93466 149.053 7.14489 149.967 6.58239C150.882 6.01989 151.953 5.73864 153.18 5.73864C154.408 5.73864 155.479 6.01989 156.393 6.58239C157.308 7.14489 158.018 7.93466 158.524 8.9517C159.03 9.96875 159.283 11.1562 159.283 12.5142C159.283 13.8665 159.03 15.0483 158.524 16.0597C158.018 17.071 157.308 17.858 156.393 18.4205C155.479 18.983 154.408 19.2642 153.18 19.2642ZM153.189 17.125C153.984 17.125 154.643 16.9148 155.166 16.4943C155.689 16.0739 156.075 15.5142 156.325 14.8153C156.581 14.1165 156.709 13.3466 156.709 12.5057C156.709 11.6705 156.581 10.9034 156.325 10.2045C156.075 9.5 155.689 8.93466 155.166 8.50852C154.643 8.08239 153.984 7.86932 153.189 7.86932C152.388 7.86932 151.723 8.08239 151.195 8.50852C150.672 8.93466 150.283 9.5 150.027 10.2045C149.777 10.9034 149.652 11.6705 149.652 12.5057C149.652 13.3466 149.777 14.1165 150.027 14.8153C150.283 15.5142 150.672 16.0739 151.195 16.4943C151.723 16.9148 152.388 17.125 153.189 17.125ZM171.027 1.54545V19H168.479V1.54545H171.027ZM174.455 19V5.90909H177.004V19H174.455ZM175.742 3.8892C175.299 3.8892 174.918 3.74148 174.6 3.44602C174.288 3.14489 174.131 2.78693 174.131 2.37216C174.131 1.9517 174.288 1.59375 174.6 1.29829C174.918 0.997159 175.299 0.846591 175.742 0.846591C176.185 0.846591 176.563 0.997159 176.876 1.29829C177.194 1.59375 177.353 1.9517 177.353 2.37216C177.353 2.78693 177.194 3.14489 176.876 3.44602C176.563 3.74148 176.185 3.8892 175.742 3.8892ZM190.241 9.10511L187.932 9.5142C187.835 9.21875 187.682 8.9375 187.472 8.67045C187.267 8.40341 186.989 8.18466 186.636 8.0142C186.284 7.84375 185.844 7.75852 185.315 7.75852C184.594 7.75852 183.991 7.92045 183.509 8.24432C183.026 8.5625 182.784 8.97443 182.784 9.48011C182.784 9.91761 182.946 10.2699 183.27 10.5369C183.594 10.804 184.116 11.0227 184.838 11.1932L186.918 11.6705C188.122 11.9489 189.02 12.3778 189.611 12.9574C190.202 13.5369 190.497 14.2898 190.497 15.2159C190.497 16 190.27 16.6989 189.815 17.3125C189.366 17.9205 188.739 18.3977 187.932 18.7443C187.131 19.0909 186.202 19.2642 185.145 19.2642C183.679 19.2642 182.483 18.9517 181.557 18.3267C180.631 17.696 180.063 16.8011 179.852 15.642L182.315 15.267C182.469 15.9091 182.784 16.3949 183.261 16.7244C183.739 17.0483 184.361 17.2102 185.128 17.2102C185.963 17.2102 186.631 17.0369 187.131 16.6903C187.631 16.3381 187.881 15.9091 187.881 15.4034C187.881 14.9943 187.727 14.6506 187.42 14.3722C187.119 14.0937 186.656 13.8835 186.031 13.7415L183.815 13.2557C182.594 12.9773 181.69 12.5341 181.105 11.9261C180.526 11.3182 180.236 10.5483 180.236 9.61648C180.236 8.84375 180.452 8.16761 180.884 7.58807C181.315 7.00852 181.912 6.55682 182.673 6.23295C183.435 5.90341 184.307 5.73864 185.29 5.73864C186.705 5.73864 187.818 6.04545 188.631 6.65909C189.443 7.26705 189.98 8.08239 190.241 9.10511ZM199.41 5.90909V7.95455H192.259V5.90909H199.41ZM194.177 2.77273H196.725V15.1562C196.725 15.6506 196.799 16.0227 196.947 16.2727C197.094 16.517 197.285 16.6847 197.518 16.7756C197.756 16.8608 198.015 16.9034 198.293 16.9034C198.498 16.9034 198.677 16.8892 198.83 16.8608C198.984 16.8324 199.103 16.8097 199.188 16.7926L199.648 18.8977C199.501 18.9545 199.29 19.0114 199.018 19.0682C198.745 19.1307 198.404 19.1648 197.995 19.1705C197.325 19.1818 196.7 19.0625 196.12 18.8125C195.54 18.5625 195.072 18.1761 194.714 17.6534C194.356 17.1307 194.177 16.4744 194.177 15.6847V2.77273Z" fill="#464646"/>
</svg>
